<mxfile host="app.diagrams.net" agent="Mozilla/5.0 (Windows NT 10.0; Win64; x64) AppleWebKit/537.36 (KHTML, like Gecko) Chrome/127.0.0.0 Safari/537.36" version="24.7.7">
  <diagram id="C5RBs43oDa-KdzZeNtuy" name="Page-1">
    <mxGraphModel dx="3088" dy="738" grid="1" gridSize="10" guides="1" tooltips="1" connect="1" arrows="1" fold="1" page="1" pageScale="1" pageWidth="827" pageHeight="1169" math="0" shadow="0">
      <root>
        <mxCell id="WIyWlLk6GJQsqaUBKTNV-0" />
        <mxCell id="WIyWlLk6GJQsqaUBKTNV-1" parent="WIyWlLk6GJQsqaUBKTNV-0" />
        <mxCell id="zArWD3oiDmWnV3UPEHup-2" style="edgeStyle=orthogonalEdgeStyle;rounded=0;orthogonalLoop=1;jettySize=auto;html=1;entryX=0.5;entryY=0;entryDx=0;entryDy=0;" parent="WIyWlLk6GJQsqaUBKTNV-1" source="WIyWlLk6GJQsqaUBKTNV-3" target="zArWD3oiDmWnV3UPEHup-1" edge="1">
          <mxGeometry relative="1" as="geometry" />
        </mxCell>
        <mxCell id="WIyWlLk6GJQsqaUBKTNV-3" value="Program Start&lt;div&gt;Select db&lt;/div&gt;" style="rounded=1;whiteSpace=wrap;html=1;fontSize=12;glass=0;strokeWidth=1;shadow=0;" parent="WIyWlLk6GJQsqaUBKTNV-1" vertex="1">
          <mxGeometry x="200" y="80" width="120" height="40" as="geometry" />
        </mxCell>
        <mxCell id="zArWD3oiDmWnV3UPEHup-12" style="edgeStyle=orthogonalEdgeStyle;rounded=0;orthogonalLoop=1;jettySize=auto;html=1;entryX=1;entryY=0.25;entryDx=0;entryDy=0;" parent="WIyWlLk6GJQsqaUBKTNV-1" source="zArWD3oiDmWnV3UPEHup-0" target="zArWD3oiDmWnV3UPEHup-8" edge="1">
          <mxGeometry relative="1" as="geometry">
            <Array as="points">
              <mxPoint x="420" y="383" />
            </Array>
          </mxGeometry>
        </mxCell>
        <mxCell id="zArWD3oiDmWnV3UPEHup-0" value="Create new DB" style="rounded=1;whiteSpace=wrap;html=1;fontSize=12;glass=0;strokeWidth=1;shadow=0;" parent="WIyWlLk6GJQsqaUBKTNV-1" vertex="1">
          <mxGeometry x="360" y="180" width="120" height="40" as="geometry" />
        </mxCell>
        <mxCell id="zArWD3oiDmWnV3UPEHup-3" style="edgeStyle=orthogonalEdgeStyle;rounded=0;orthogonalLoop=1;jettySize=auto;html=1;entryX=0;entryY=0.5;entryDx=0;entryDy=0;" parent="WIyWlLk6GJQsqaUBKTNV-1" source="zArWD3oiDmWnV3UPEHup-1" target="zArWD3oiDmWnV3UPEHup-0" edge="1">
          <mxGeometry relative="1" as="geometry" />
        </mxCell>
        <mxCell id="zArWD3oiDmWnV3UPEHup-13" value="No" style="edgeLabel;html=1;align=center;verticalAlign=middle;resizable=0;points=[];" parent="zArWD3oiDmWnV3UPEHup-3" vertex="1" connectable="0">
          <mxGeometry x="-0.1333" y="3" relative="1" as="geometry">
            <mxPoint as="offset" />
          </mxGeometry>
        </mxCell>
        <mxCell id="zArWD3oiDmWnV3UPEHup-7" style="edgeStyle=orthogonalEdgeStyle;rounded=0;orthogonalLoop=1;jettySize=auto;html=1;entryX=0.5;entryY=0;entryDx=0;entryDy=0;" parent="WIyWlLk6GJQsqaUBKTNV-1" source="zArWD3oiDmWnV3UPEHup-1" edge="1">
          <mxGeometry relative="1" as="geometry">
            <mxPoint x="260" y="280" as="targetPoint" />
          </mxGeometry>
        </mxCell>
        <mxCell id="zArWD3oiDmWnV3UPEHup-1" value="DB selected" style="rhombus;whiteSpace=wrap;html=1;" parent="WIyWlLk6GJQsqaUBKTNV-1" vertex="1">
          <mxGeometry x="220" y="160" width="80" height="80" as="geometry" />
        </mxCell>
        <mxCell id="zArWD3oiDmWnV3UPEHup-37" style="edgeStyle=orthogonalEdgeStyle;rounded=0;orthogonalLoop=1;jettySize=auto;html=1;entryX=0.5;entryY=0;entryDx=0;entryDy=0;" parent="WIyWlLk6GJQsqaUBKTNV-1" source="zArWD3oiDmWnV3UPEHup-8" target="zArWD3oiDmWnV3UPEHup-15" edge="1">
          <mxGeometry relative="1" as="geometry" />
        </mxCell>
        <mxCell id="zArWD3oiDmWnV3UPEHup-39" style="edgeStyle=orthogonalEdgeStyle;rounded=0;orthogonalLoop=1;jettySize=auto;html=1;entryX=0.5;entryY=0;entryDx=0;entryDy=0;" parent="WIyWlLk6GJQsqaUBKTNV-1" source="zArWD3oiDmWnV3UPEHup-8" target="zArWD3oiDmWnV3UPEHup-16" edge="1">
          <mxGeometry relative="1" as="geometry" />
        </mxCell>
        <mxCell id="zArWD3oiDmWnV3UPEHup-40" style="edgeStyle=orthogonalEdgeStyle;rounded=0;orthogonalLoop=1;jettySize=auto;html=1;entryX=0.5;entryY=0;entryDx=0;entryDy=0;" parent="WIyWlLk6GJQsqaUBKTNV-1" source="zArWD3oiDmWnV3UPEHup-8" target="zArWD3oiDmWnV3UPEHup-25" edge="1">
          <mxGeometry relative="1" as="geometry" />
        </mxCell>
        <mxCell id="zArWD3oiDmWnV3UPEHup-41" style="edgeStyle=orthogonalEdgeStyle;rounded=0;orthogonalLoop=1;jettySize=auto;html=1;entryX=0.5;entryY=0;entryDx=0;entryDy=0;" parent="WIyWlLk6GJQsqaUBKTNV-1" source="zArWD3oiDmWnV3UPEHup-8" target="zArWD3oiDmWnV3UPEHup-24" edge="1">
          <mxGeometry relative="1" as="geometry" />
        </mxCell>
        <mxCell id="zArWD3oiDmWnV3UPEHup-42" style="edgeStyle=orthogonalEdgeStyle;rounded=0;orthogonalLoop=1;jettySize=auto;html=1;entryX=0.5;entryY=0;entryDx=0;entryDy=0;" parent="WIyWlLk6GJQsqaUBKTNV-1" source="zArWD3oiDmWnV3UPEHup-8" target="zArWD3oiDmWnV3UPEHup-23" edge="1">
          <mxGeometry relative="1" as="geometry" />
        </mxCell>
        <mxCell id="zArWD3oiDmWnV3UPEHup-43" style="edgeStyle=orthogonalEdgeStyle;rounded=0;orthogonalLoop=1;jettySize=auto;html=1;entryX=0.5;entryY=0;entryDx=0;entryDy=0;" parent="WIyWlLk6GJQsqaUBKTNV-1" source="zArWD3oiDmWnV3UPEHup-8" target="zArWD3oiDmWnV3UPEHup-28" edge="1">
          <mxGeometry relative="1" as="geometry" />
        </mxCell>
        <mxCell id="zArWD3oiDmWnV3UPEHup-44" style="edgeStyle=orthogonalEdgeStyle;rounded=0;orthogonalLoop=1;jettySize=auto;html=1;entryX=0.5;entryY=0;entryDx=0;entryDy=0;" parent="WIyWlLk6GJQsqaUBKTNV-1" source="zArWD3oiDmWnV3UPEHup-8" target="zArWD3oiDmWnV3UPEHup-27" edge="1">
          <mxGeometry relative="1" as="geometry" />
        </mxCell>
        <mxCell id="zArWD3oiDmWnV3UPEHup-45" style="edgeStyle=orthogonalEdgeStyle;rounded=0;orthogonalLoop=1;jettySize=auto;html=1;entryX=0.5;entryY=0;entryDx=0;entryDy=0;" parent="WIyWlLk6GJQsqaUBKTNV-1" source="zArWD3oiDmWnV3UPEHup-8" target="zArWD3oiDmWnV3UPEHup-26" edge="1">
          <mxGeometry relative="1" as="geometry" />
        </mxCell>
        <mxCell id="zArWD3oiDmWnV3UPEHup-46" style="edgeStyle=orthogonalEdgeStyle;rounded=0;orthogonalLoop=1;jettySize=auto;html=1;entryX=0.5;entryY=0;entryDx=0;entryDy=0;" parent="WIyWlLk6GJQsqaUBKTNV-1" source="zArWD3oiDmWnV3UPEHup-8" target="zArWD3oiDmWnV3UPEHup-19" edge="1">
          <mxGeometry relative="1" as="geometry" />
        </mxCell>
        <mxCell id="zArWD3oiDmWnV3UPEHup-47" style="edgeStyle=orthogonalEdgeStyle;rounded=0;orthogonalLoop=1;jettySize=auto;html=1;entryX=0.5;entryY=0;entryDx=0;entryDy=0;" parent="WIyWlLk6GJQsqaUBKTNV-1" source="zArWD3oiDmWnV3UPEHup-8" target="zArWD3oiDmWnV3UPEHup-20" edge="1">
          <mxGeometry relative="1" as="geometry">
            <Array as="points">
              <mxPoint x="450" y="400" />
              <mxPoint x="450" y="480" />
            </Array>
          </mxGeometry>
        </mxCell>
        <mxCell id="zArWD3oiDmWnV3UPEHup-207" style="edgeStyle=orthogonalEdgeStyle;rounded=0;orthogonalLoop=1;jettySize=auto;html=1;entryX=0.5;entryY=0;entryDx=0;entryDy=0;" parent="WIyWlLk6GJQsqaUBKTNV-1" source="zArWD3oiDmWnV3UPEHup-8" target="zArWD3oiDmWnV3UPEHup-205" edge="1">
          <mxGeometry relative="1" as="geometry" />
        </mxCell>
        <mxCell id="7I4d7LD9d_-0BF3cVncG-2" style="edgeStyle=orthogonalEdgeStyle;rounded=0;orthogonalLoop=1;jettySize=auto;html=1;exitX=0.5;exitY=1;exitDx=0;exitDy=0;entryX=0.5;entryY=0;entryDx=0;entryDy=0;" parent="WIyWlLk6GJQsqaUBKTNV-1" source="zArWD3oiDmWnV3UPEHup-8" target="zArWD3oiDmWnV3UPEHup-248" edge="1">
          <mxGeometry relative="1" as="geometry" />
        </mxCell>
        <mxCell id="7I4d7LD9d_-0BF3cVncG-3" style="edgeStyle=orthogonalEdgeStyle;rounded=0;orthogonalLoop=1;jettySize=auto;html=1;exitX=1;exitY=0.5;exitDx=0;exitDy=0;entryX=0.5;entryY=0;entryDx=0;entryDy=0;" parent="WIyWlLk6GJQsqaUBKTNV-1" source="zArWD3oiDmWnV3UPEHup-8" target="zArWD3oiDmWnV3UPEHup-247" edge="1">
          <mxGeometry relative="1" as="geometry" />
        </mxCell>
        <mxCell id="7I4d7LD9d_-0BF3cVncG-8" style="edgeStyle=orthogonalEdgeStyle;rounded=0;orthogonalLoop=1;jettySize=auto;html=1;entryX=0.5;entryY=0;entryDx=0;entryDy=0;" parent="WIyWlLk6GJQsqaUBKTNV-1" source="zArWD3oiDmWnV3UPEHup-8" target="zArWD3oiDmWnV3UPEHup-238" edge="1">
          <mxGeometry relative="1" as="geometry" />
        </mxCell>
        <mxCell id="zArWD3oiDmWnV3UPEHup-8" value="Enter command" style="shape=hexagon;perimeter=hexagonPerimeter2;whiteSpace=wrap;html=1;fixedSize=1;" parent="WIyWlLk6GJQsqaUBKTNV-1" vertex="1">
          <mxGeometry x="200" y="360" width="120" height="80" as="geometry" />
        </mxCell>
        <mxCell id="zArWD3oiDmWnV3UPEHup-11" style="edgeStyle=orthogonalEdgeStyle;rounded=0;orthogonalLoop=1;jettySize=auto;html=1;" parent="WIyWlLk6GJQsqaUBKTNV-1" source="zArWD3oiDmWnV3UPEHup-10" target="zArWD3oiDmWnV3UPEHup-8" edge="1">
          <mxGeometry relative="1" as="geometry" />
        </mxCell>
        <mxCell id="zArWD3oiDmWnV3UPEHup-10" value="Load DB" style="rounded=1;whiteSpace=wrap;html=1;fontSize=12;glass=0;strokeWidth=1;shadow=0;" parent="WIyWlLk6GJQsqaUBKTNV-1" vertex="1">
          <mxGeometry x="200" y="280" width="120" height="40" as="geometry" />
        </mxCell>
        <mxCell id="zArWD3oiDmWnV3UPEHup-36" style="edgeStyle=orthogonalEdgeStyle;rounded=0;orthogonalLoop=1;jettySize=auto;html=1;entryX=0.5;entryY=0;entryDx=0;entryDy=0;" parent="WIyWlLk6GJQsqaUBKTNV-1" source="zArWD3oiDmWnV3UPEHup-15" target="zArWD3oiDmWnV3UPEHup-29" edge="1">
          <mxGeometry relative="1" as="geometry" />
        </mxCell>
        <mxCell id="zArWD3oiDmWnV3UPEHup-15" value="add-contact" style="rounded=1;whiteSpace=wrap;html=1;fontSize=12;glass=0;strokeWidth=1;shadow=0;" parent="WIyWlLk6GJQsqaUBKTNV-1" vertex="1">
          <mxGeometry x="-600" y="480" width="120" height="40" as="geometry" />
        </mxCell>
        <mxCell id="zArWD3oiDmWnV3UPEHup-55" style="edgeStyle=orthogonalEdgeStyle;rounded=0;orthogonalLoop=1;jettySize=auto;html=1;entryX=0.5;entryY=0;entryDx=0;entryDy=0;" parent="WIyWlLk6GJQsqaUBKTNV-1" source="zArWD3oiDmWnV3UPEHup-16" target="zArWD3oiDmWnV3UPEHup-52" edge="1">
          <mxGeometry relative="1" as="geometry" />
        </mxCell>
        <mxCell id="zArWD3oiDmWnV3UPEHup-16" value="edit-contact" style="rounded=1;whiteSpace=wrap;html=1;fontSize=12;glass=0;strokeWidth=1;shadow=0;" parent="WIyWlLk6GJQsqaUBKTNV-1" vertex="1">
          <mxGeometry x="-440" y="480" width="120" height="40" as="geometry" />
        </mxCell>
        <mxCell id="zArWD3oiDmWnV3UPEHup-140" style="edgeStyle=orthogonalEdgeStyle;rounded=0;orthogonalLoop=1;jettySize=auto;html=1;entryX=0.5;entryY=0;entryDx=0;entryDy=0;" parent="WIyWlLk6GJQsqaUBKTNV-1" source="zArWD3oiDmWnV3UPEHup-19" target="zArWD3oiDmWnV3UPEHup-136" edge="1">
          <mxGeometry relative="1" as="geometry" />
        </mxCell>
        <mxCell id="zArWD3oiDmWnV3UPEHup-19" value="add-note" style="rounded=1;whiteSpace=wrap;html=1;fontSize=12;glass=0;strokeWidth=1;shadow=0;" parent="WIyWlLk6GJQsqaUBKTNV-1" vertex="1">
          <mxGeometry x="680.25" y="480" width="120" height="40" as="geometry" />
        </mxCell>
        <mxCell id="zArWD3oiDmWnV3UPEHup-132" style="edgeStyle=orthogonalEdgeStyle;rounded=0;orthogonalLoop=1;jettySize=auto;html=1;" parent="WIyWlLk6GJQsqaUBKTNV-1" source="zArWD3oiDmWnV3UPEHup-20" target="zArWD3oiDmWnV3UPEHup-131" edge="1">
          <mxGeometry relative="1" as="geometry" />
        </mxCell>
        <mxCell id="zArWD3oiDmWnV3UPEHup-20" value="birthdays" style="rounded=1;whiteSpace=wrap;html=1;fontSize=12;glass=0;strokeWidth=1;shadow=0;" parent="WIyWlLk6GJQsqaUBKTNV-1" vertex="1">
          <mxGeometry x="390" y="480" width="120" height="40" as="geometry" />
        </mxCell>
        <mxCell id="zArWD3oiDmWnV3UPEHup-117" style="edgeStyle=orthogonalEdgeStyle;rounded=0;orthogonalLoop=1;jettySize=auto;html=1;entryX=0.5;entryY=0;entryDx=0;entryDy=0;" parent="WIyWlLk6GJQsqaUBKTNV-1" source="zArWD3oiDmWnV3UPEHup-23" target="zArWD3oiDmWnV3UPEHup-114" edge="1">
          <mxGeometry relative="1" as="geometry" />
        </mxCell>
        <mxCell id="zArWD3oiDmWnV3UPEHup-23" value="search_record" style="rounded=1;whiteSpace=wrap;html=1;fontSize=12;glass=0;strokeWidth=1;shadow=0;" parent="WIyWlLk6GJQsqaUBKTNV-1" vertex="1">
          <mxGeometry x="39.75" y="480" width="120" height="40" as="geometry" />
        </mxCell>
        <mxCell id="zArWD3oiDmWnV3UPEHup-118" style="edgeStyle=orthogonalEdgeStyle;rounded=0;orthogonalLoop=1;jettySize=auto;html=1;entryX=0.5;entryY=0;entryDx=0;entryDy=0;" parent="WIyWlLk6GJQsqaUBKTNV-1" source="zArWD3oiDmWnV3UPEHup-24" target="zArWD3oiDmWnV3UPEHup-80" edge="1">
          <mxGeometry relative="1" as="geometry" />
        </mxCell>
        <mxCell id="zArWD3oiDmWnV3UPEHup-24" value="show-records" style="rounded=1;whiteSpace=wrap;html=1;fontSize=12;glass=0;strokeWidth=1;shadow=0;" parent="WIyWlLk6GJQsqaUBKTNV-1" vertex="1">
          <mxGeometry x="-120.25" y="480" width="120" height="40" as="geometry" />
        </mxCell>
        <mxCell id="zArWD3oiDmWnV3UPEHup-78" style="edgeStyle=orthogonalEdgeStyle;rounded=0;orthogonalLoop=1;jettySize=auto;html=1;" parent="WIyWlLk6GJQsqaUBKTNV-1" source="zArWD3oiDmWnV3UPEHup-25" target="zArWD3oiDmWnV3UPEHup-70" edge="1">
          <mxGeometry relative="1" as="geometry" />
        </mxCell>
        <mxCell id="zArWD3oiDmWnV3UPEHup-25" value="remove-contact" style="rounded=1;whiteSpace=wrap;html=1;fontSize=12;glass=0;strokeWidth=1;shadow=0;" parent="WIyWlLk6GJQsqaUBKTNV-1" vertex="1">
          <mxGeometry x="-280.25" y="480" width="120" height="40" as="geometry" />
        </mxCell>
        <mxCell id="zArWD3oiDmWnV3UPEHup-169" style="edgeStyle=orthogonalEdgeStyle;rounded=0;orthogonalLoop=1;jettySize=auto;html=1;entryX=0.5;entryY=0;entryDx=0;entryDy=0;" parent="WIyWlLk6GJQsqaUBKTNV-1" source="zArWD3oiDmWnV3UPEHup-26" target="zArWD3oiDmWnV3UPEHup-166" edge="1">
          <mxGeometry relative="1" as="geometry" />
        </mxCell>
        <mxCell id="zArWD3oiDmWnV3UPEHup-26" value="edit-note" style="rounded=1;whiteSpace=wrap;html=1;fontSize=12;glass=0;strokeWidth=1;shadow=0;" parent="WIyWlLk6GJQsqaUBKTNV-1" vertex="1">
          <mxGeometry x="840" y="480" width="120" height="40" as="geometry" />
        </mxCell>
        <mxCell id="zArWD3oiDmWnV3UPEHup-202" style="edgeStyle=orthogonalEdgeStyle;rounded=0;orthogonalLoop=1;jettySize=auto;html=1;entryX=0.5;entryY=0;entryDx=0;entryDy=0;" parent="WIyWlLk6GJQsqaUBKTNV-1" source="zArWD3oiDmWnV3UPEHup-27" target="zArWD3oiDmWnV3UPEHup-199" edge="1">
          <mxGeometry relative="1" as="geometry" />
        </mxCell>
        <mxCell id="zArWD3oiDmWnV3UPEHup-27" value="search-note" style="rounded=1;whiteSpace=wrap;html=1;fontSize=12;glass=0;strokeWidth=1;shadow=0;" parent="WIyWlLk6GJQsqaUBKTNV-1" vertex="1">
          <mxGeometry x="1000" y="480" width="120" height="40" as="geometry" />
        </mxCell>
        <mxCell id="zArWD3oiDmWnV3UPEHup-229" style="edgeStyle=orthogonalEdgeStyle;rounded=0;orthogonalLoop=1;jettySize=auto;html=1;entryX=0.5;entryY=0;entryDx=0;entryDy=0;" parent="WIyWlLk6GJQsqaUBKTNV-1" source="zArWD3oiDmWnV3UPEHup-28" target="zArWD3oiDmWnV3UPEHup-226" edge="1">
          <mxGeometry relative="1" as="geometry" />
        </mxCell>
        <mxCell id="zArWD3oiDmWnV3UPEHup-28" value="delete-note" style="rounded=1;whiteSpace=wrap;html=1;fontSize=12;glass=0;strokeWidth=1;shadow=0;" parent="WIyWlLk6GJQsqaUBKTNV-1" vertex="1">
          <mxGeometry x="1320" y="480" width="120" height="40" as="geometry" />
        </mxCell>
        <mxCell id="zArWD3oiDmWnV3UPEHup-33" style="edgeStyle=orthogonalEdgeStyle;rounded=0;orthogonalLoop=1;jettySize=auto;html=1;" parent="WIyWlLk6GJQsqaUBKTNV-1" source="zArWD3oiDmWnV3UPEHup-29" target="zArWD3oiDmWnV3UPEHup-30" edge="1">
          <mxGeometry relative="1" as="geometry" />
        </mxCell>
        <mxCell id="zArWD3oiDmWnV3UPEHup-35" value="Yes" style="edgeLabel;html=1;align=center;verticalAlign=middle;resizable=0;points=[];" parent="zArWD3oiDmWnV3UPEHup-33" vertex="1" connectable="0">
          <mxGeometry x="0.4349" relative="1" as="geometry">
            <mxPoint as="offset" />
          </mxGeometry>
        </mxCell>
        <mxCell id="zArWD3oiDmWnV3UPEHup-34" style="edgeStyle=orthogonalEdgeStyle;rounded=0;orthogonalLoop=1;jettySize=auto;html=1;entryX=0.5;entryY=0;entryDx=0;entryDy=0;" parent="WIyWlLk6GJQsqaUBKTNV-1" source="zArWD3oiDmWnV3UPEHup-29" target="zArWD3oiDmWnV3UPEHup-31" edge="1">
          <mxGeometry relative="1" as="geometry" />
        </mxCell>
        <mxCell id="zArWD3oiDmWnV3UPEHup-29" value="contact exists" style="rhombus;whiteSpace=wrap;html=1;" parent="WIyWlLk6GJQsqaUBKTNV-1" vertex="1">
          <mxGeometry x="-780" y="560" width="80" height="80" as="geometry" />
        </mxCell>
        <mxCell id="zArWD3oiDmWnV3UPEHup-233" style="edgeStyle=orthogonalEdgeStyle;rounded=0;orthogonalLoop=1;jettySize=auto;html=1;entryX=0;entryY=0.5;entryDx=0;entryDy=0;" parent="WIyWlLk6GJQsqaUBKTNV-1" source="zArWD3oiDmWnV3UPEHup-30" target="zArWD3oiDmWnV3UPEHup-57" edge="1">
          <mxGeometry relative="1" as="geometry">
            <Array as="points">
              <mxPoint x="-880" y="780" />
            </Array>
          </mxGeometry>
        </mxCell>
        <mxCell id="zArWD3oiDmWnV3UPEHup-30" value="return message that contact exists" style="rounded=1;whiteSpace=wrap;html=1;fontSize=12;glass=0;strokeWidth=1;shadow=0;" parent="WIyWlLk6GJQsqaUBKTNV-1" vertex="1">
          <mxGeometry x="-940" y="580" width="120" height="40" as="geometry" />
        </mxCell>
        <mxCell id="zArWD3oiDmWnV3UPEHup-58" style="edgeStyle=orthogonalEdgeStyle;rounded=0;orthogonalLoop=1;jettySize=auto;html=1;entryX=0.5;entryY=0;entryDx=0;entryDy=0;" parent="WIyWlLk6GJQsqaUBKTNV-1" source="zArWD3oiDmWnV3UPEHup-31" target="zArWD3oiDmWnV3UPEHup-57" edge="1">
          <mxGeometry relative="1" as="geometry" />
        </mxCell>
        <mxCell id="zArWD3oiDmWnV3UPEHup-31" value="create contact" style="rounded=1;whiteSpace=wrap;html=1;fontSize=12;glass=0;strokeWidth=1;shadow=0;" parent="WIyWlLk6GJQsqaUBKTNV-1" vertex="1">
          <mxGeometry x="-800" y="670" width="120" height="40" as="geometry" />
        </mxCell>
        <mxCell id="zArWD3oiDmWnV3UPEHup-49" style="edgeStyle=orthogonalEdgeStyle;rounded=0;orthogonalLoop=1;jettySize=auto;html=1;" parent="WIyWlLk6GJQsqaUBKTNV-1" source="zArWD3oiDmWnV3UPEHup-52" target="zArWD3oiDmWnV3UPEHup-53" edge="1">
          <mxGeometry relative="1" as="geometry" />
        </mxCell>
        <mxCell id="zArWD3oiDmWnV3UPEHup-50" value="No" style="edgeLabel;html=1;align=center;verticalAlign=middle;resizable=0;points=[];" parent="zArWD3oiDmWnV3UPEHup-49" vertex="1" connectable="0">
          <mxGeometry x="0.4349" relative="1" as="geometry">
            <mxPoint as="offset" />
          </mxGeometry>
        </mxCell>
        <mxCell id="zArWD3oiDmWnV3UPEHup-51" style="edgeStyle=orthogonalEdgeStyle;rounded=0;orthogonalLoop=1;jettySize=auto;html=1;entryX=0.5;entryY=0;entryDx=0;entryDy=0;" parent="WIyWlLk6GJQsqaUBKTNV-1" source="zArWD3oiDmWnV3UPEHup-83" target="zArWD3oiDmWnV3UPEHup-54" edge="1">
          <mxGeometry relative="1" as="geometry" />
        </mxCell>
        <mxCell id="zArWD3oiDmWnV3UPEHup-52" value="contact exist" style="rhombus;whiteSpace=wrap;html=1;" parent="WIyWlLk6GJQsqaUBKTNV-1" vertex="1">
          <mxGeometry x="-420" y="560" width="80" height="80" as="geometry" />
        </mxCell>
        <mxCell id="zArWD3oiDmWnV3UPEHup-53" value="return message that contact exists" style="rounded=1;whiteSpace=wrap;html=1;fontSize=12;glass=0;strokeWidth=1;shadow=0;" parent="WIyWlLk6GJQsqaUBKTNV-1" vertex="1">
          <mxGeometry x="-600" y="580" width="120" height="40" as="geometry" />
        </mxCell>
        <mxCell id="zArWD3oiDmWnV3UPEHup-54" value="change phone" style="rounded=1;whiteSpace=wrap;html=1;fontSize=12;glass=0;strokeWidth=1;shadow=0;" parent="WIyWlLk6GJQsqaUBKTNV-1" vertex="1">
          <mxGeometry x="-440" y="880" width="120" height="40" as="geometry" />
        </mxCell>
        <mxCell id="zArWD3oiDmWnV3UPEHup-57" value="phone in parameters" style="rhombus;whiteSpace=wrap;html=1;" parent="WIyWlLk6GJQsqaUBKTNV-1" vertex="1">
          <mxGeometry x="-780" y="740" width="80" height="80" as="geometry" />
        </mxCell>
        <mxCell id="zArWD3oiDmWnV3UPEHup-59" value="add phone to contact" style="rounded=1;whiteSpace=wrap;html=1;fontSize=12;glass=0;strokeWidth=1;shadow=0;" parent="WIyWlLk6GJQsqaUBKTNV-1" vertex="1">
          <mxGeometry x="-800" y="1060" width="120" height="40" as="geometry" />
        </mxCell>
        <mxCell id="zArWD3oiDmWnV3UPEHup-62" value="return message that phone is missed" style="rounded=1;whiteSpace=wrap;html=1;fontSize=12;glass=0;strokeWidth=1;shadow=0;" parent="WIyWlLk6GJQsqaUBKTNV-1" vertex="1">
          <mxGeometry x="-600" y="690" width="120" height="40" as="geometry" />
        </mxCell>
        <mxCell id="zArWD3oiDmWnV3UPEHup-64" value="" style="edgeStyle=orthogonalEdgeStyle;rounded=0;orthogonalLoop=1;jettySize=auto;html=1;entryX=0.5;entryY=0;entryDx=0;entryDy=0;" parent="WIyWlLk6GJQsqaUBKTNV-1" source="zArWD3oiDmWnV3UPEHup-52" target="zArWD3oiDmWnV3UPEHup-63" edge="1">
          <mxGeometry relative="1" as="geometry">
            <mxPoint x="-380" y="640" as="sourcePoint" />
            <mxPoint x="-380" y="800" as="targetPoint" />
          </mxGeometry>
        </mxCell>
        <mxCell id="zArWD3oiDmWnV3UPEHup-65" style="edgeStyle=orthogonalEdgeStyle;rounded=0;orthogonalLoop=1;jettySize=auto;html=1;entryX=1;entryY=0.5;entryDx=0;entryDy=0;" parent="WIyWlLk6GJQsqaUBKTNV-1" source="zArWD3oiDmWnV3UPEHup-63" target="zArWD3oiDmWnV3UPEHup-62" edge="1">
          <mxGeometry relative="1" as="geometry" />
        </mxCell>
        <mxCell id="zArWD3oiDmWnV3UPEHup-66" value="No" style="edgeLabel;html=1;align=center;verticalAlign=middle;resizable=0;points=[];" parent="zArWD3oiDmWnV3UPEHup-65" vertex="1" connectable="0">
          <mxGeometry x="0.3333" y="-1" relative="1" as="geometry">
            <mxPoint as="offset" />
          </mxGeometry>
        </mxCell>
        <mxCell id="zArWD3oiDmWnV3UPEHup-63" value="old and new phone exist" style="rhombus;whiteSpace=wrap;html=1;" parent="WIyWlLk6GJQsqaUBKTNV-1" vertex="1">
          <mxGeometry x="-420" y="670" width="80" height="80" as="geometry" />
        </mxCell>
        <mxCell id="zArWD3oiDmWnV3UPEHup-67" style="edgeStyle=orthogonalEdgeStyle;rounded=0;orthogonalLoop=1;jettySize=auto;html=1;" parent="WIyWlLk6GJQsqaUBKTNV-1" source="zArWD3oiDmWnV3UPEHup-70" target="zArWD3oiDmWnV3UPEHup-71" edge="1">
          <mxGeometry relative="1" as="geometry" />
        </mxCell>
        <mxCell id="zArWD3oiDmWnV3UPEHup-68" value="No" style="edgeLabel;html=1;align=center;verticalAlign=middle;resizable=0;points=[];" parent="zArWD3oiDmWnV3UPEHup-67" vertex="1" connectable="0">
          <mxGeometry x="0.4349" relative="1" as="geometry">
            <mxPoint as="offset" />
          </mxGeometry>
        </mxCell>
        <mxCell id="zArWD3oiDmWnV3UPEHup-70" value="contact exist" style="rhombus;whiteSpace=wrap;html=1;" parent="WIyWlLk6GJQsqaUBKTNV-1" vertex="1">
          <mxGeometry x="-260" y="960" width="80" height="80" as="geometry" />
        </mxCell>
        <mxCell id="zArWD3oiDmWnV3UPEHup-71" value="return message that contact not exists" style="rounded=1;whiteSpace=wrap;html=1;fontSize=12;glass=0;strokeWidth=1;shadow=0;" parent="WIyWlLk6GJQsqaUBKTNV-1" vertex="1">
          <mxGeometry x="-440" y="980" width="120" height="40" as="geometry" />
        </mxCell>
        <mxCell id="zArWD3oiDmWnV3UPEHup-74" value="" style="edgeStyle=orthogonalEdgeStyle;rounded=0;orthogonalLoop=1;jettySize=auto;html=1;entryX=0.5;entryY=0;entryDx=0;entryDy=0;" parent="WIyWlLk6GJQsqaUBKTNV-1" source="zArWD3oiDmWnV3UPEHup-70" target="zArWD3oiDmWnV3UPEHup-79" edge="1">
          <mxGeometry relative="1" as="geometry">
            <mxPoint x="-220" y="1040" as="sourcePoint" />
            <mxPoint x="-220" y="1070" as="targetPoint" />
          </mxGeometry>
        </mxCell>
        <mxCell id="zArWD3oiDmWnV3UPEHup-79" value="remove contact" style="rounded=1;whiteSpace=wrap;html=1;fontSize=12;glass=0;strokeWidth=1;shadow=0;" parent="WIyWlLk6GJQsqaUBKTNV-1" vertex="1">
          <mxGeometry x="-280.25" y="1070" width="120" height="40" as="geometry" />
        </mxCell>
        <mxCell id="zArWD3oiDmWnV3UPEHup-80" value="return all records in table. Sort and filter if parameters exists&amp;nbsp;" style="rounded=1;whiteSpace=wrap;html=1;fontSize=12;glass=0;strokeWidth=1;shadow=0;" parent="WIyWlLk6GJQsqaUBKTNV-1" vertex="1">
          <mxGeometry x="-120.25" y="560" width="120" height="60" as="geometry" />
        </mxCell>
        <mxCell id="zArWD3oiDmWnV3UPEHup-84" value="" style="edgeStyle=orthogonalEdgeStyle;rounded=0;orthogonalLoop=1;jettySize=auto;html=1;entryX=0.5;entryY=0;entryDx=0;entryDy=0;" parent="WIyWlLk6GJQsqaUBKTNV-1" source="zArWD3oiDmWnV3UPEHup-63" target="zArWD3oiDmWnV3UPEHup-83" edge="1">
          <mxGeometry relative="1" as="geometry">
            <mxPoint x="-380" y="750" as="sourcePoint" />
            <mxPoint x="-380" y="860" as="targetPoint" />
          </mxGeometry>
        </mxCell>
        <mxCell id="zArWD3oiDmWnV3UPEHup-86" style="edgeStyle=orthogonalEdgeStyle;rounded=0;orthogonalLoop=1;jettySize=auto;html=1;entryX=1;entryY=0.5;entryDx=0;entryDy=0;" parent="WIyWlLk6GJQsqaUBKTNV-1" source="zArWD3oiDmWnV3UPEHup-83" target="zArWD3oiDmWnV3UPEHup-85" edge="1">
          <mxGeometry relative="1" as="geometry" />
        </mxCell>
        <mxCell id="zArWD3oiDmWnV3UPEHup-83" value="phone format is ok" style="rhombus;whiteSpace=wrap;html=1;" parent="WIyWlLk6GJQsqaUBKTNV-1" vertex="1">
          <mxGeometry x="-420" y="770" width="80" height="80" as="geometry" />
        </mxCell>
        <mxCell id="zArWD3oiDmWnV3UPEHup-85" value="return message that phone format is wrong" style="rounded=1;whiteSpace=wrap;html=1;fontSize=12;glass=0;strokeWidth=1;shadow=0;" parent="WIyWlLk6GJQsqaUBKTNV-1" vertex="1">
          <mxGeometry x="-600" y="790" width="120" height="40" as="geometry" />
        </mxCell>
        <mxCell id="zArWD3oiDmWnV3UPEHup-88" style="edgeStyle=orthogonalEdgeStyle;rounded=0;orthogonalLoop=1;jettySize=auto;html=1;entryX=1;entryY=0.5;entryDx=0;entryDy=0;" parent="WIyWlLk6GJQsqaUBKTNV-1" source="zArWD3oiDmWnV3UPEHup-89" target="zArWD3oiDmWnV3UPEHup-90" edge="1">
          <mxGeometry relative="1" as="geometry" />
        </mxCell>
        <mxCell id="zArWD3oiDmWnV3UPEHup-93" value="No" style="edgeLabel;html=1;align=center;verticalAlign=middle;resizable=0;points=[];" parent="zArWD3oiDmWnV3UPEHup-88" vertex="1" connectable="0">
          <mxGeometry x="0.14" relative="1" as="geometry">
            <mxPoint as="offset" />
          </mxGeometry>
        </mxCell>
        <mxCell id="zArWD3oiDmWnV3UPEHup-90" value="return message that phone format is wrong" style="rounded=1;whiteSpace=wrap;html=1;fontSize=12;glass=0;strokeWidth=1;shadow=0;" parent="WIyWlLk6GJQsqaUBKTNV-1" vertex="1">
          <mxGeometry x="-947" y="870" width="120" height="40" as="geometry" />
        </mxCell>
        <mxCell id="zArWD3oiDmWnV3UPEHup-91" value="" style="edgeStyle=orthogonalEdgeStyle;rounded=0;orthogonalLoop=1;jettySize=auto;html=1;exitX=0.5;exitY=1;exitDx=0;exitDy=0;entryX=0.5;entryY=0;entryDx=0;entryDy=0;" parent="WIyWlLk6GJQsqaUBKTNV-1" source="zArWD3oiDmWnV3UPEHup-57" target="zArWD3oiDmWnV3UPEHup-89" edge="1">
          <mxGeometry relative="1" as="geometry">
            <mxPoint x="-740" y="820" as="sourcePoint" />
            <mxPoint x="-740" y="980" as="targetPoint" />
          </mxGeometry>
        </mxCell>
        <mxCell id="zArWD3oiDmWnV3UPEHup-92" value="yes" style="edgeLabel;html=1;align=center;verticalAlign=middle;resizable=0;points=[];" parent="zArWD3oiDmWnV3UPEHup-91" vertex="1" connectable="0">
          <mxGeometry x="-0.2857" y="4" relative="1" as="geometry">
            <mxPoint as="offset" />
          </mxGeometry>
        </mxCell>
        <mxCell id="zArWD3oiDmWnV3UPEHup-231" style="edgeStyle=orthogonalEdgeStyle;rounded=0;orthogonalLoop=1;jettySize=auto;html=1;entryX=0.5;entryY=0;entryDx=0;entryDy=0;" parent="WIyWlLk6GJQsqaUBKTNV-1" source="zArWD3oiDmWnV3UPEHup-89" target="zArWD3oiDmWnV3UPEHup-230" edge="1">
          <mxGeometry relative="1" as="geometry" />
        </mxCell>
        <mxCell id="zArWD3oiDmWnV3UPEHup-89" value="phone format is ok" style="rhombus;whiteSpace=wrap;html=1;" parent="WIyWlLk6GJQsqaUBKTNV-1" vertex="1">
          <mxGeometry x="-780" y="850" width="80" height="80" as="geometry" />
        </mxCell>
        <mxCell id="zArWD3oiDmWnV3UPEHup-111" style="edgeStyle=orthogonalEdgeStyle;rounded=0;orthogonalLoop=1;jettySize=auto;html=1;" parent="WIyWlLk6GJQsqaUBKTNV-1" source="zArWD3oiDmWnV3UPEHup-114" target="zArWD3oiDmWnV3UPEHup-115" edge="1">
          <mxGeometry relative="1" as="geometry" />
        </mxCell>
        <mxCell id="zArWD3oiDmWnV3UPEHup-112" value="Yes" style="edgeLabel;html=1;align=center;verticalAlign=middle;resizable=0;points=[];" parent="zArWD3oiDmWnV3UPEHup-111" vertex="1" connectable="0">
          <mxGeometry x="0.4349" relative="1" as="geometry">
            <mxPoint as="offset" />
          </mxGeometry>
        </mxCell>
        <mxCell id="zArWD3oiDmWnV3UPEHup-113" style="edgeStyle=orthogonalEdgeStyle;rounded=0;orthogonalLoop=1;jettySize=auto;html=1;entryX=0.5;entryY=0;entryDx=0;entryDy=0;" parent="WIyWlLk6GJQsqaUBKTNV-1" source="zArWD3oiDmWnV3UPEHup-114" target="zArWD3oiDmWnV3UPEHup-116" edge="1">
          <mxGeometry relative="1" as="geometry" />
        </mxCell>
        <mxCell id="zArWD3oiDmWnV3UPEHup-114" value="contact exists" style="rhombus;whiteSpace=wrap;html=1;" parent="WIyWlLk6GJQsqaUBKTNV-1" vertex="1">
          <mxGeometry x="59.75" y="650" width="80" height="80" as="geometry" />
        </mxCell>
        <mxCell id="zArWD3oiDmWnV3UPEHup-115" value="return message that contact not exists" style="rounded=1;whiteSpace=wrap;html=1;fontSize=12;glass=0;strokeWidth=1;shadow=0;" parent="WIyWlLk6GJQsqaUBKTNV-1" vertex="1">
          <mxGeometry x="-100.25" y="670" width="120" height="40" as="geometry" />
        </mxCell>
        <mxCell id="zArWD3oiDmWnV3UPEHup-116" value="return contact information by criteria" style="rounded=1;whiteSpace=wrap;html=1;fontSize=12;glass=0;strokeWidth=1;shadow=0;" parent="WIyWlLk6GJQsqaUBKTNV-1" vertex="1">
          <mxGeometry x="39.75" y="760" width="120" height="40" as="geometry" />
        </mxCell>
        <mxCell id="zArWD3oiDmWnV3UPEHup-131" value="return birthdays for next 7 days" style="rounded=1;whiteSpace=wrap;html=1;fontSize=12;glass=0;strokeWidth=1;shadow=0;" parent="WIyWlLk6GJQsqaUBKTNV-1" vertex="1">
          <mxGeometry x="390" y="565" width="120" height="40" as="geometry" />
        </mxCell>
        <mxCell id="zArWD3oiDmWnV3UPEHup-133" style="edgeStyle=orthogonalEdgeStyle;rounded=0;orthogonalLoop=1;jettySize=auto;html=1;" parent="WIyWlLk6GJQsqaUBKTNV-1" source="zArWD3oiDmWnV3UPEHup-136" target="zArWD3oiDmWnV3UPEHup-137" edge="1">
          <mxGeometry relative="1" as="geometry" />
        </mxCell>
        <mxCell id="zArWD3oiDmWnV3UPEHup-134" value="Yes" style="edgeLabel;html=1;align=center;verticalAlign=middle;resizable=0;points=[];" parent="zArWD3oiDmWnV3UPEHup-133" vertex="1" connectable="0">
          <mxGeometry x="0.4349" relative="1" as="geometry">
            <mxPoint as="offset" />
          </mxGeometry>
        </mxCell>
        <mxCell id="zArWD3oiDmWnV3UPEHup-135" style="edgeStyle=orthogonalEdgeStyle;rounded=0;orthogonalLoop=1;jettySize=auto;html=1;entryX=0.5;entryY=0;entryDx=0;entryDy=0;" parent="WIyWlLk6GJQsqaUBKTNV-1" source="zArWD3oiDmWnV3UPEHup-136" target="zArWD3oiDmWnV3UPEHup-138" edge="1">
          <mxGeometry relative="1" as="geometry" />
        </mxCell>
        <mxCell id="zArWD3oiDmWnV3UPEHup-136" value="note title exists" style="rhombus;whiteSpace=wrap;html=1;" parent="WIyWlLk6GJQsqaUBKTNV-1" vertex="1">
          <mxGeometry x="700.25" y="640" width="80" height="80" as="geometry" />
        </mxCell>
        <mxCell id="zArWD3oiDmWnV3UPEHup-137" value="return message that note not exists" style="rounded=1;whiteSpace=wrap;html=1;fontSize=12;glass=0;strokeWidth=1;shadow=0;" parent="WIyWlLk6GJQsqaUBKTNV-1" vertex="1">
          <mxGeometry x="540.25" y="660" width="120" height="40" as="geometry" />
        </mxCell>
        <mxCell id="zArWD3oiDmWnV3UPEHup-142" style="edgeStyle=orthogonalEdgeStyle;rounded=0;orthogonalLoop=1;jettySize=auto;html=1;entryX=0.5;entryY=0;entryDx=0;entryDy=0;" parent="WIyWlLk6GJQsqaUBKTNV-1" source="zArWD3oiDmWnV3UPEHup-138" target="zArWD3oiDmWnV3UPEHup-143" edge="1">
          <mxGeometry relative="1" as="geometry">
            <mxPoint x="740.25" y="830" as="targetPoint" />
          </mxGeometry>
        </mxCell>
        <mxCell id="zArWD3oiDmWnV3UPEHup-138" value="create note with title" style="rounded=1;whiteSpace=wrap;html=1;fontSize=12;glass=0;strokeWidth=1;shadow=0;" parent="WIyWlLk6GJQsqaUBKTNV-1" vertex="1">
          <mxGeometry x="680.25" y="750" width="120" height="40" as="geometry" />
        </mxCell>
        <mxCell id="zArWD3oiDmWnV3UPEHup-147" style="edgeStyle=orthogonalEdgeStyle;rounded=0;orthogonalLoop=1;jettySize=auto;html=1;entryX=0.5;entryY=0;entryDx=0;entryDy=0;" parent="WIyWlLk6GJQsqaUBKTNV-1" source="zArWD3oiDmWnV3UPEHup-143" target="zArWD3oiDmWnV3UPEHup-162" edge="1">
          <mxGeometry relative="1" as="geometry">
            <mxPoint x="740.2352941176468" y="945.0106498459731" as="targetPoint" />
          </mxGeometry>
        </mxCell>
        <mxCell id="zArWD3oiDmWnV3UPEHup-143" value="Input multilane mode for body" style="ellipse;whiteSpace=wrap;html=1;" parent="WIyWlLk6GJQsqaUBKTNV-1" vertex="1">
          <mxGeometry x="680.25" y="830" width="120" height="80" as="geometry" />
        </mxCell>
        <mxCell id="zArWD3oiDmWnV3UPEHup-176" style="edgeStyle=orthogonalEdgeStyle;rounded=0;orthogonalLoop=1;jettySize=auto;html=1;entryX=0.5;entryY=0;entryDx=0;entryDy=0;" parent="WIyWlLk6GJQsqaUBKTNV-1" source="zArWD3oiDmWnV3UPEHup-162" target="zArWD3oiDmWnV3UPEHup-175" edge="1">
          <mxGeometry relative="1" as="geometry" />
        </mxCell>
        <mxCell id="zArWD3oiDmWnV3UPEHup-162" value="link to contact" style="rounded=1;whiteSpace=wrap;html=1;fontSize=12;glass=0;strokeWidth=1;shadow=0;" parent="WIyWlLk6GJQsqaUBKTNV-1" vertex="1">
          <mxGeometry x="680" y="980.03" width="120" height="40" as="geometry" />
        </mxCell>
        <mxCell id="zArWD3oiDmWnV3UPEHup-163" style="edgeStyle=orthogonalEdgeStyle;rounded=0;orthogonalLoop=1;jettySize=auto;html=1;" parent="WIyWlLk6GJQsqaUBKTNV-1" source="zArWD3oiDmWnV3UPEHup-166" target="zArWD3oiDmWnV3UPEHup-167" edge="1">
          <mxGeometry relative="1" as="geometry" />
        </mxCell>
        <mxCell id="zArWD3oiDmWnV3UPEHup-164" value="Yes" style="edgeLabel;html=1;align=center;verticalAlign=middle;resizable=0;points=[];" parent="zArWD3oiDmWnV3UPEHup-163" vertex="1" connectable="0">
          <mxGeometry x="0.4349" relative="1" as="geometry">
            <mxPoint as="offset" />
          </mxGeometry>
        </mxCell>
        <mxCell id="zArWD3oiDmWnV3UPEHup-165" style="edgeStyle=orthogonalEdgeStyle;rounded=0;orthogonalLoop=1;jettySize=auto;html=1;entryX=0.5;entryY=0;entryDx=0;entryDy=0;" parent="WIyWlLk6GJQsqaUBKTNV-1" source="zArWD3oiDmWnV3UPEHup-166" target="zArWD3oiDmWnV3UPEHup-168" edge="1">
          <mxGeometry relative="1" as="geometry" />
        </mxCell>
        <mxCell id="zArWD3oiDmWnV3UPEHup-166" value="note title exists" style="rhombus;whiteSpace=wrap;html=1;" parent="WIyWlLk6GJQsqaUBKTNV-1" vertex="1">
          <mxGeometry x="860.5" y="1620" width="80" height="80" as="geometry" />
        </mxCell>
        <mxCell id="zArWD3oiDmWnV3UPEHup-167" value="return message that note not exists" style="rounded=1;whiteSpace=wrap;html=1;fontSize=12;glass=0;strokeWidth=1;shadow=0;" parent="WIyWlLk6GJQsqaUBKTNV-1" vertex="1">
          <mxGeometry x="700.5" y="1640" width="120" height="40" as="geometry" />
        </mxCell>
        <mxCell id="zArWD3oiDmWnV3UPEHup-171" style="edgeStyle=orthogonalEdgeStyle;rounded=0;orthogonalLoop=1;jettySize=auto;html=1;" parent="WIyWlLk6GJQsqaUBKTNV-1" source="zArWD3oiDmWnV3UPEHup-168" target="zArWD3oiDmWnV3UPEHup-170" edge="1">
          <mxGeometry relative="1" as="geometry" />
        </mxCell>
        <mxCell id="zArWD3oiDmWnV3UPEHup-168" value="return body" style="rounded=1;whiteSpace=wrap;html=1;fontSize=12;glass=0;strokeWidth=1;shadow=0;" parent="WIyWlLk6GJQsqaUBKTNV-1" vertex="1">
          <mxGeometry x="840.5" y="1730" width="120" height="40" as="geometry" />
        </mxCell>
        <mxCell id="zArWD3oiDmWnV3UPEHup-174" style="edgeStyle=orthogonalEdgeStyle;rounded=0;orthogonalLoop=1;jettySize=auto;html=1;entryX=0.5;entryY=0;entryDx=0;entryDy=0;" parent="WIyWlLk6GJQsqaUBKTNV-1" source="zArWD3oiDmWnV3UPEHup-170" target="zArWD3oiDmWnV3UPEHup-173" edge="1">
          <mxGeometry relative="1" as="geometry" />
        </mxCell>
        <mxCell id="zArWD3oiDmWnV3UPEHup-170" value="Input multilane mode for body" style="ellipse;whiteSpace=wrap;html=1;" parent="WIyWlLk6GJQsqaUBKTNV-1" vertex="1">
          <mxGeometry x="840.5" y="1810" width="120" height="80" as="geometry" />
        </mxCell>
        <mxCell id="zArWD3oiDmWnV3UPEHup-173" value="change body" style="rounded=1;whiteSpace=wrap;html=1;fontSize=12;glass=0;strokeWidth=1;shadow=0;" parent="WIyWlLk6GJQsqaUBKTNV-1" vertex="1">
          <mxGeometry x="840.5" y="1930" width="120" height="40" as="geometry" />
        </mxCell>
        <mxCell id="zArWD3oiDmWnV3UPEHup-178" style="edgeStyle=orthogonalEdgeStyle;rounded=0;orthogonalLoop=1;jettySize=auto;html=1;entryX=1;entryY=0.5;entryDx=0;entryDy=0;" parent="WIyWlLk6GJQsqaUBKTNV-1" source="zArWD3oiDmWnV3UPEHup-175" target="zArWD3oiDmWnV3UPEHup-177" edge="1">
          <mxGeometry relative="1" as="geometry" />
        </mxCell>
        <mxCell id="zArWD3oiDmWnV3UPEHup-183" value="No" style="edgeLabel;html=1;align=center;verticalAlign=middle;resizable=0;points=[];" parent="zArWD3oiDmWnV3UPEHup-178" vertex="1" connectable="0">
          <mxGeometry x="-0.0833" y="3" relative="1" as="geometry">
            <mxPoint x="1" as="offset" />
          </mxGeometry>
        </mxCell>
        <mxCell id="zArWD3oiDmWnV3UPEHup-182" style="edgeStyle=orthogonalEdgeStyle;rounded=0;orthogonalLoop=1;jettySize=auto;html=1;entryX=0.5;entryY=0;entryDx=0;entryDy=0;" parent="WIyWlLk6GJQsqaUBKTNV-1" source="zArWD3oiDmWnV3UPEHup-175" target="zArWD3oiDmWnV3UPEHup-180" edge="1">
          <mxGeometry relative="1" as="geometry" />
        </mxCell>
        <mxCell id="zArWD3oiDmWnV3UPEHup-175" value="ask if needed to link a tag" style="rhombus;whiteSpace=wrap;html=1;" parent="WIyWlLk6GJQsqaUBKTNV-1" vertex="1">
          <mxGeometry x="700.25" y="1060.03" width="80" height="80" as="geometry" />
        </mxCell>
        <mxCell id="zArWD3oiDmWnV3UPEHup-177" value="save note" style="rounded=1;whiteSpace=wrap;html=1;fontSize=12;glass=0;strokeWidth=1;shadow=0;" parent="WIyWlLk6GJQsqaUBKTNV-1" vertex="1">
          <mxGeometry x="520.25" y="1080.03" width="120" height="40" as="geometry" />
        </mxCell>
        <mxCell id="zArWD3oiDmWnV3UPEHup-179" style="edgeStyle=orthogonalEdgeStyle;rounded=0;orthogonalLoop=1;jettySize=auto;html=1;entryX=1;entryY=0.5;entryDx=0;entryDy=0;" parent="WIyWlLk6GJQsqaUBKTNV-1" source="zArWD3oiDmWnV3UPEHup-180" target="zArWD3oiDmWnV3UPEHup-181" edge="1">
          <mxGeometry relative="1" as="geometry" />
        </mxCell>
        <mxCell id="zArWD3oiDmWnV3UPEHup-184" value="No" style="edgeLabel;html=1;align=center;verticalAlign=middle;resizable=0;points=[];" parent="zArWD3oiDmWnV3UPEHup-179" vertex="1" connectable="0">
          <mxGeometry x="0.2167" y="2" relative="1" as="geometry">
            <mxPoint x="1" as="offset" />
          </mxGeometry>
        </mxCell>
        <mxCell id="zArWD3oiDmWnV3UPEHup-186" style="edgeStyle=orthogonalEdgeStyle;rounded=0;orthogonalLoop=1;jettySize=auto;html=1;" parent="WIyWlLk6GJQsqaUBKTNV-1" source="zArWD3oiDmWnV3UPEHup-180" target="zArWD3oiDmWnV3UPEHup-185" edge="1">
          <mxGeometry relative="1" as="geometry" />
        </mxCell>
        <mxCell id="zArWD3oiDmWnV3UPEHup-180" value="tag exist" style="rhombus;whiteSpace=wrap;html=1;" parent="WIyWlLk6GJQsqaUBKTNV-1" vertex="1">
          <mxGeometry x="700.25" y="1180.03" width="80" height="80" as="geometry" />
        </mxCell>
        <mxCell id="zArWD3oiDmWnV3UPEHup-181" value="create tag" style="rounded=1;whiteSpace=wrap;html=1;fontSize=12;glass=0;strokeWidth=1;shadow=0;" parent="WIyWlLk6GJQsqaUBKTNV-1" vertex="1">
          <mxGeometry x="520.25" y="1200.03" width="120" height="40" as="geometry" />
        </mxCell>
        <mxCell id="zArWD3oiDmWnV3UPEHup-185" value="save note" style="rounded=1;whiteSpace=wrap;html=1;fontSize=12;glass=0;strokeWidth=1;shadow=0;" parent="WIyWlLk6GJQsqaUBKTNV-1" vertex="1">
          <mxGeometry x="680.25" y="1300.03" width="120" height="40" as="geometry" />
        </mxCell>
        <mxCell id="zArWD3oiDmWnV3UPEHup-196" style="edgeStyle=orthogonalEdgeStyle;rounded=0;orthogonalLoop=1;jettySize=auto;html=1;" parent="WIyWlLk6GJQsqaUBKTNV-1" source="zArWD3oiDmWnV3UPEHup-199" target="zArWD3oiDmWnV3UPEHup-200" edge="1">
          <mxGeometry relative="1" as="geometry" />
        </mxCell>
        <mxCell id="zArWD3oiDmWnV3UPEHup-197" value="Yes" style="edgeLabel;html=1;align=center;verticalAlign=middle;resizable=0;points=[];" parent="zArWD3oiDmWnV3UPEHup-196" vertex="1" connectable="0">
          <mxGeometry x="0.4349" relative="1" as="geometry">
            <mxPoint as="offset" />
          </mxGeometry>
        </mxCell>
        <mxCell id="zArWD3oiDmWnV3UPEHup-208" style="edgeStyle=orthogonalEdgeStyle;rounded=0;orthogonalLoop=1;jettySize=auto;html=1;" parent="WIyWlLk6GJQsqaUBKTNV-1" source="zArWD3oiDmWnV3UPEHup-199" target="zArWD3oiDmWnV3UPEHup-204" edge="1">
          <mxGeometry relative="1" as="geometry">
            <mxPoint x="1150" y="780" as="targetPoint" />
          </mxGeometry>
        </mxCell>
        <mxCell id="zArWD3oiDmWnV3UPEHup-199" value="note title exists" style="rhombus;whiteSpace=wrap;html=1;" parent="WIyWlLk6GJQsqaUBKTNV-1" vertex="1">
          <mxGeometry x="1110" y="670" width="80" height="80" as="geometry" />
        </mxCell>
        <mxCell id="zArWD3oiDmWnV3UPEHup-200" value="return message that note not exists" style="rounded=1;whiteSpace=wrap;html=1;fontSize=12;glass=0;strokeWidth=1;shadow=0;" parent="WIyWlLk6GJQsqaUBKTNV-1" vertex="1">
          <mxGeometry x="950" y="690" width="120" height="40" as="geometry" />
        </mxCell>
        <mxCell id="zArWD3oiDmWnV3UPEHup-213" style="edgeStyle=orthogonalEdgeStyle;rounded=0;orthogonalLoop=1;jettySize=auto;html=1;entryX=1;entryY=0.5;entryDx=0;entryDy=0;" parent="WIyWlLk6GJQsqaUBKTNV-1" source="zArWD3oiDmWnV3UPEHup-204" target="zArWD3oiDmWnV3UPEHup-212" edge="1">
          <mxGeometry relative="1" as="geometry" />
        </mxCell>
        <mxCell id="zArWD3oiDmWnV3UPEHup-219" style="edgeStyle=orthogonalEdgeStyle;rounded=0;orthogonalLoop=1;jettySize=auto;html=1;entryX=0.5;entryY=0;entryDx=0;entryDy=0;" parent="WIyWlLk6GJQsqaUBKTNV-1" source="zArWD3oiDmWnV3UPEHup-204" target="zArWD3oiDmWnV3UPEHup-218" edge="1">
          <mxGeometry relative="1" as="geometry" />
        </mxCell>
        <mxCell id="zArWD3oiDmWnV3UPEHup-204" value="note tags exist" style="rhombus;whiteSpace=wrap;html=1;" parent="WIyWlLk6GJQsqaUBKTNV-1" vertex="1">
          <mxGeometry x="1110" y="780" width="80" height="80" as="geometry" />
        </mxCell>
        <mxCell id="zArWD3oiDmWnV3UPEHup-220" style="edgeStyle=orthogonalEdgeStyle;rounded=0;orthogonalLoop=1;jettySize=auto;html=1;entryX=0.5;entryY=0;entryDx=0;entryDy=0;" parent="WIyWlLk6GJQsqaUBKTNV-1" source="zArWD3oiDmWnV3UPEHup-205" target="zArWD3oiDmWnV3UPEHup-216" edge="1">
          <mxGeometry relative="1" as="geometry" />
        </mxCell>
        <mxCell id="zArWD3oiDmWnV3UPEHup-205" value="show-&lt;span style=&quot;background-color: initial;&quot;&gt;note&lt;/span&gt;" style="rounded=1;whiteSpace=wrap;html=1;fontSize=12;glass=0;strokeWidth=1;shadow=0;" parent="WIyWlLk6GJQsqaUBKTNV-1" vertex="1">
          <mxGeometry x="1160" y="480" width="120" height="40" as="geometry" />
        </mxCell>
        <mxCell id="zArWD3oiDmWnV3UPEHup-212" value="return message that note not exists" style="rounded=1;whiteSpace=wrap;html=1;fontSize=12;glass=0;strokeWidth=1;shadow=0;" parent="WIyWlLk6GJQsqaUBKTNV-1" vertex="1">
          <mxGeometry x="950" y="800" width="120" height="40" as="geometry" />
        </mxCell>
        <mxCell id="zArWD3oiDmWnV3UPEHup-214" style="edgeStyle=orthogonalEdgeStyle;rounded=0;orthogonalLoop=1;jettySize=auto;html=1;" parent="WIyWlLk6GJQsqaUBKTNV-1" source="zArWD3oiDmWnV3UPEHup-216" target="zArWD3oiDmWnV3UPEHup-217" edge="1">
          <mxGeometry relative="1" as="geometry" />
        </mxCell>
        <mxCell id="zArWD3oiDmWnV3UPEHup-215" value="Yes" style="edgeLabel;html=1;align=center;verticalAlign=middle;resizable=0;points=[];" parent="zArWD3oiDmWnV3UPEHup-214" vertex="1" connectable="0">
          <mxGeometry x="0.4349" relative="1" as="geometry">
            <mxPoint as="offset" />
          </mxGeometry>
        </mxCell>
        <mxCell id="zArWD3oiDmWnV3UPEHup-222" style="edgeStyle=orthogonalEdgeStyle;rounded=0;orthogonalLoop=1;jettySize=auto;html=1;exitX=0.5;exitY=1;exitDx=0;exitDy=0;entryX=0.5;entryY=0;entryDx=0;entryDy=0;" parent="WIyWlLk6GJQsqaUBKTNV-1" source="zArWD3oiDmWnV3UPEHup-216" target="zArWD3oiDmWnV3UPEHup-221" edge="1">
          <mxGeometry relative="1" as="geometry" />
        </mxCell>
        <mxCell id="zArWD3oiDmWnV3UPEHup-216" value="note title exists" style="rhombus;whiteSpace=wrap;html=1;" parent="WIyWlLk6GJQsqaUBKTNV-1" vertex="1">
          <mxGeometry x="1250" y="1080" width="80" height="80" as="geometry" />
        </mxCell>
        <mxCell id="zArWD3oiDmWnV3UPEHup-217" value="return message that note not exists" style="rounded=1;whiteSpace=wrap;html=1;fontSize=12;glass=0;strokeWidth=1;shadow=0;" parent="WIyWlLk6GJQsqaUBKTNV-1" vertex="1">
          <mxGeometry x="1090" y="1100" width="120" height="40" as="geometry" />
        </mxCell>
        <mxCell id="zArWD3oiDmWnV3UPEHup-218" value="return titles" style="rounded=1;whiteSpace=wrap;html=1;fontSize=12;glass=0;strokeWidth=1;shadow=0;" parent="WIyWlLk6GJQsqaUBKTNV-1" vertex="1">
          <mxGeometry x="1090" y="890" width="120" height="40" as="geometry" />
        </mxCell>
        <mxCell id="zArWD3oiDmWnV3UPEHup-221" value="return body" style="rounded=1;whiteSpace=wrap;html=1;fontSize=12;glass=0;strokeWidth=1;shadow=0;" parent="WIyWlLk6GJQsqaUBKTNV-1" vertex="1">
          <mxGeometry x="1230" y="1190" width="120" height="40" as="geometry" />
        </mxCell>
        <mxCell id="zArWD3oiDmWnV3UPEHup-223" style="edgeStyle=orthogonalEdgeStyle;rounded=0;orthogonalLoop=1;jettySize=auto;html=1;" parent="WIyWlLk6GJQsqaUBKTNV-1" source="zArWD3oiDmWnV3UPEHup-226" target="zArWD3oiDmWnV3UPEHup-227" edge="1">
          <mxGeometry relative="1" as="geometry" />
        </mxCell>
        <mxCell id="zArWD3oiDmWnV3UPEHup-224" value="Yes" style="edgeLabel;html=1;align=center;verticalAlign=middle;resizable=0;points=[];" parent="zArWD3oiDmWnV3UPEHup-223" vertex="1" connectable="0">
          <mxGeometry x="0.4349" relative="1" as="geometry">
            <mxPoint as="offset" />
          </mxGeometry>
        </mxCell>
        <mxCell id="zArWD3oiDmWnV3UPEHup-225" style="edgeStyle=orthogonalEdgeStyle;rounded=0;orthogonalLoop=1;jettySize=auto;html=1;exitX=0.5;exitY=1;exitDx=0;exitDy=0;entryX=0.5;entryY=0;entryDx=0;entryDy=0;" parent="WIyWlLk6GJQsqaUBKTNV-1" source="zArWD3oiDmWnV3UPEHup-226" target="zArWD3oiDmWnV3UPEHup-228" edge="1">
          <mxGeometry relative="1" as="geometry" />
        </mxCell>
        <mxCell id="zArWD3oiDmWnV3UPEHup-226" value="note title exist" style="rhombus;whiteSpace=wrap;html=1;" parent="WIyWlLk6GJQsqaUBKTNV-1" vertex="1">
          <mxGeometry x="1440" y="585" width="80" height="80" as="geometry" />
        </mxCell>
        <mxCell id="zArWD3oiDmWnV3UPEHup-227" value="return message that note not exists" style="rounded=1;whiteSpace=wrap;html=1;fontSize=12;glass=0;strokeWidth=1;shadow=0;" parent="WIyWlLk6GJQsqaUBKTNV-1" vertex="1">
          <mxGeometry x="1280" y="605" width="120" height="40" as="geometry" />
        </mxCell>
        <mxCell id="zArWD3oiDmWnV3UPEHup-228" value="delete note" style="rounded=1;whiteSpace=wrap;html=1;fontSize=12;glass=0;strokeWidth=1;shadow=0;" parent="WIyWlLk6GJQsqaUBKTNV-1" vertex="1">
          <mxGeometry x="1420" y="695" width="120" height="40" as="geometry" />
        </mxCell>
        <mxCell id="zArWD3oiDmWnV3UPEHup-232" style="edgeStyle=orthogonalEdgeStyle;rounded=0;orthogonalLoop=1;jettySize=auto;html=1;entryX=0.5;entryY=0;entryDx=0;entryDy=0;" parent="WIyWlLk6GJQsqaUBKTNV-1" source="zArWD3oiDmWnV3UPEHup-230" target="zArWD3oiDmWnV3UPEHup-59" edge="1">
          <mxGeometry relative="1" as="geometry" />
        </mxCell>
        <mxCell id="zArWD3oiDmWnV3UPEHup-237" style="edgeStyle=orthogonalEdgeStyle;rounded=0;orthogonalLoop=1;jettySize=auto;html=1;entryX=1;entryY=0.5;entryDx=0;entryDy=0;" parent="WIyWlLk6GJQsqaUBKTNV-1" source="zArWD3oiDmWnV3UPEHup-230" target="zArWD3oiDmWnV3UPEHup-236" edge="1">
          <mxGeometry relative="1" as="geometry" />
        </mxCell>
        <mxCell id="zArWD3oiDmWnV3UPEHup-230" value="phone does not exist in all contacts" style="rhombus;whiteSpace=wrap;html=1;" parent="WIyWlLk6GJQsqaUBKTNV-1" vertex="1">
          <mxGeometry x="-780" y="950" width="80" height="80" as="geometry" />
        </mxCell>
        <mxCell id="zArWD3oiDmWnV3UPEHup-236" value="return that phone is used" style="rounded=1;whiteSpace=wrap;html=1;fontSize=12;glass=0;strokeWidth=1;shadow=0;" parent="WIyWlLk6GJQsqaUBKTNV-1" vertex="1">
          <mxGeometry x="-947" y="970" width="120" height="40" as="geometry" />
        </mxCell>
        <mxCell id="zArWD3oiDmWnV3UPEHup-238" value="show-&lt;span style=&quot;background-color: initial;&quot;&gt;notes&lt;/span&gt;" style="rounded=1;whiteSpace=wrap;html=1;fontSize=12;glass=0;strokeWidth=1;shadow=0;" parent="WIyWlLk6GJQsqaUBKTNV-1" vertex="1">
          <mxGeometry x="1480" y="480" width="120" height="40" as="geometry" />
        </mxCell>
        <mxCell id="zArWD3oiDmWnV3UPEHup-239" style="edgeStyle=orthogonalEdgeStyle;rounded=0;orthogonalLoop=1;jettySize=auto;html=1;entryX=1;entryY=0.5;entryDx=0;entryDy=0;" parent="WIyWlLk6GJQsqaUBKTNV-1" source="zArWD3oiDmWnV3UPEHup-241" target="zArWD3oiDmWnV3UPEHup-242" edge="1">
          <mxGeometry relative="1" as="geometry" />
        </mxCell>
        <mxCell id="zArWD3oiDmWnV3UPEHup-240" style="edgeStyle=orthogonalEdgeStyle;rounded=0;orthogonalLoop=1;jettySize=auto;html=1;" parent="WIyWlLk6GJQsqaUBKTNV-1" source="zArWD3oiDmWnV3UPEHup-241" target="zArWD3oiDmWnV3UPEHup-246" edge="1">
          <mxGeometry relative="1" as="geometry">
            <mxPoint x="440.75" y="890" as="targetPoint" />
          </mxGeometry>
        </mxCell>
        <mxCell id="zArWD3oiDmWnV3UPEHup-241" value="if note and contact exist" style="rhombus;whiteSpace=wrap;html=1;" parent="WIyWlLk6GJQsqaUBKTNV-1" vertex="1">
          <mxGeometry x="390.37" y="745" width="100.25" height="110" as="geometry" />
        </mxCell>
        <mxCell id="zArWD3oiDmWnV3UPEHup-242" value="return error" style="rounded=1;whiteSpace=wrap;html=1;fontSize=12;glass=0;strokeWidth=1;shadow=0;" parent="WIyWlLk6GJQsqaUBKTNV-1" vertex="1">
          <mxGeometry x="220" y="780" width="120" height="40" as="geometry" />
        </mxCell>
        <mxCell id="zArWD3oiDmWnV3UPEHup-246" value="link note to contact" style="rounded=1;whiteSpace=wrap;html=1;fontSize=12;glass=0;strokeWidth=1;shadow=0;" parent="WIyWlLk6GJQsqaUBKTNV-1" vertex="1">
          <mxGeometry x="380.49" y="910" width="120" height="40" as="geometry" />
        </mxCell>
        <mxCell id="7I4d7LD9d_-0BF3cVncG-7" style="edgeStyle=orthogonalEdgeStyle;rounded=0;orthogonalLoop=1;jettySize=auto;html=1;exitX=0.5;exitY=1;exitDx=0;exitDy=0;entryX=0.5;entryY=0;entryDx=0;entryDy=0;" parent="WIyWlLk6GJQsqaUBKTNV-1" source="zArWD3oiDmWnV3UPEHup-247" target="7I4d7LD9d_-0BF3cVncG-6" edge="1">
          <mxGeometry relative="1" as="geometry" />
        </mxCell>
        <mxCell id="zArWD3oiDmWnV3UPEHup-247" value="add-tag" style="rounded=1;whiteSpace=wrap;html=1;fontSize=12;glass=0;strokeWidth=1;shadow=0;" parent="WIyWlLk6GJQsqaUBKTNV-1" vertex="1">
          <mxGeometry x="540.25" y="480" width="120" height="40" as="geometry" />
        </mxCell>
        <mxCell id="zArWD3oiDmWnV3UPEHup-248" value="link_note_to_contact" style="rounded=1;whiteSpace=wrap;html=1;fontSize=12;glass=0;strokeWidth=1;shadow=0;" parent="WIyWlLk6GJQsqaUBKTNV-1" vertex="1">
          <mxGeometry x="200" y="480" width="120" height="40" as="geometry" />
        </mxCell>
        <mxCell id="zArWD3oiDmWnV3UPEHup-249" style="edgeStyle=orthogonalEdgeStyle;rounded=0;orthogonalLoop=1;jettySize=auto;html=1;entryX=0.5;entryY=0;entryDx=0;entryDy=0;" parent="WIyWlLk6GJQsqaUBKTNV-1" source="zArWD3oiDmWnV3UPEHup-248" target="zArWD3oiDmWnV3UPEHup-241" edge="1">
          <mxGeometry relative="1" as="geometry">
            <Array as="points">
              <mxPoint x="270" y="745" />
            </Array>
          </mxGeometry>
        </mxCell>
        <mxCell id="7I4d7LD9d_-0BF3cVncG-6" value="add color" style="rounded=1;whiteSpace=wrap;html=1;fontSize=12;glass=0;strokeWidth=1;shadow=0;" parent="WIyWlLk6GJQsqaUBKTNV-1" vertex="1">
          <mxGeometry x="540.25" y="560" width="120" height="40" as="geometry" />
        </mxCell>
        <mxCell id="9tm5Qkl4JyFdD57BOaka-0" value="change-tag" style="rounded=1;whiteSpace=wrap;html=1;fontSize=12;glass=0;strokeWidth=1;shadow=0;" parent="WIyWlLk6GJQsqaUBKTNV-1" vertex="1">
          <mxGeometry x="580.25" y="300" width="120" height="40" as="geometry" />
        </mxCell>
      </root>
    </mxGraphModel>
  </diagram>
</mxfile>
